<mxfile host="app.diagrams.net" modified="2021-10-23T01:34:08.885Z" agent="5.0 (Windows NT 10.0; Win64; x64) AppleWebKit/537.36 (KHTML, like Gecko) Chrome/95.0.4638.54 Safari/537.36" etag="-_-IdQufRlFAyEBES4Ou" version="15.5.8" type="github">
  <diagram id="C5RBs43oDa-KdzZeNtuy" name="Page-1">
    <mxGraphModel dx="2324" dy="2005" grid="1" gridSize="10" guides="1" tooltips="1" connect="1" arrows="1" fold="1" page="1" pageScale="1" pageWidth="827" pageHeight="1169" math="0" shadow="0">
      <root>
        <mxCell id="WIyWlLk6GJQsqaUBKTNV-0" />
        <mxCell id="WIyWlLk6GJQsqaUBKTNV-1" parent="WIyWlLk6GJQsqaUBKTNV-0" />
        <mxCell id="7nlXbzmbvDEDy_vcGsnb-0" style="edgeStyle=orthogonalEdgeStyle;rounded=0;orthogonalLoop=1;jettySize=auto;html=1;entryX=0.5;entryY=0;entryDx=0;entryDy=0;" edge="1" parent="WIyWlLk6GJQsqaUBKTNV-1" source="7nlXbzmbvDEDy_vcGsnb-1" target="7nlXbzmbvDEDy_vcGsnb-3">
          <mxGeometry relative="1" as="geometry">
            <Array as="points" />
          </mxGeometry>
        </mxCell>
        <mxCell id="7nlXbzmbvDEDy_vcGsnb-1" value="Start" style="ellipse;whiteSpace=wrap;html=1;" vertex="1" parent="WIyWlLk6GJQsqaUBKTNV-1">
          <mxGeometry x="-560" y="-1000" width="120" height="80" as="geometry" />
        </mxCell>
        <mxCell id="7nlXbzmbvDEDy_vcGsnb-2" style="edgeStyle=orthogonalEdgeStyle;rounded=0;orthogonalLoop=1;jettySize=auto;html=1;entryX=0.5;entryY=0;entryDx=0;entryDy=0;" edge="1" parent="WIyWlLk6GJQsqaUBKTNV-1" source="7nlXbzmbvDEDy_vcGsnb-3" target="7nlXbzmbvDEDy_vcGsnb-6">
          <mxGeometry relative="1" as="geometry" />
        </mxCell>
        <mxCell id="7nlXbzmbvDEDy_vcGsnb-3" value="stop behind the white line at the red light" style="rounded=0;whiteSpace=wrap;html=1;" vertex="1" parent="WIyWlLk6GJQsqaUBKTNV-1">
          <mxGeometry x="-560" y="-880" width="120" height="50" as="geometry" />
        </mxCell>
        <mxCell id="7nlXbzmbvDEDy_vcGsnb-4" style="edgeStyle=orthogonalEdgeStyle;rounded=0;orthogonalLoop=1;jettySize=auto;html=1;entryX=0;entryY=0.5;entryDx=0;entryDy=0;" edge="1" parent="WIyWlLk6GJQsqaUBKTNV-1" source="7nlXbzmbvDEDy_vcGsnb-6" target="7nlXbzmbvDEDy_vcGsnb-8">
          <mxGeometry relative="1" as="geometry" />
        </mxCell>
        <mxCell id="7nlXbzmbvDEDy_vcGsnb-5" style="edgeStyle=orthogonalEdgeStyle;rounded=0;orthogonalLoop=1;jettySize=auto;html=1;" edge="1" parent="WIyWlLk6GJQsqaUBKTNV-1" source="7nlXbzmbvDEDy_vcGsnb-6" target="7nlXbzmbvDEDy_vcGsnb-10">
          <mxGeometry relative="1" as="geometry" />
        </mxCell>
        <mxCell id="7nlXbzmbvDEDy_vcGsnb-11" value="no" style="edgeLabel;html=1;align=center;verticalAlign=middle;resizable=0;points=[];" vertex="1" connectable="0" parent="7nlXbzmbvDEDy_vcGsnb-5">
          <mxGeometry x="-0.3401" y="-1" relative="1" as="geometry">
            <mxPoint x="1" as="offset" />
          </mxGeometry>
        </mxCell>
        <mxCell id="7nlXbzmbvDEDy_vcGsnb-6" value="is the light red?" style="rhombus;whiteSpace=wrap;html=1;" vertex="1" parent="WIyWlLk6GJQsqaUBKTNV-1">
          <mxGeometry x="-540" y="-790" width="80" height="80" as="geometry" />
        </mxCell>
        <mxCell id="7nlXbzmbvDEDy_vcGsnb-7" style="edgeStyle=orthogonalEdgeStyle;rounded=0;orthogonalLoop=1;jettySize=auto;html=1;" edge="1" parent="WIyWlLk6GJQsqaUBKTNV-1" source="7nlXbzmbvDEDy_vcGsnb-8">
          <mxGeometry relative="1" as="geometry">
            <mxPoint x="-500" y="-810" as="targetPoint" />
            <Array as="points">
              <mxPoint x="-230" y="-810" />
            </Array>
          </mxGeometry>
        </mxCell>
        <mxCell id="7nlXbzmbvDEDy_vcGsnb-8" value="wait for the light to turn green" style="rounded=0;whiteSpace=wrap;html=1;" vertex="1" parent="WIyWlLk6GJQsqaUBKTNV-1">
          <mxGeometry x="-290" y="-780" width="120" height="60" as="geometry" />
        </mxCell>
        <mxCell id="7nlXbzmbvDEDy_vcGsnb-9" value="yes" style="rounded=0;whiteSpace=wrap;html=1;" vertex="1" parent="WIyWlLk6GJQsqaUBKTNV-1">
          <mxGeometry x="-410" y="-760" width="20" height="20" as="geometry" />
        </mxCell>
        <mxCell id="7nlXbzmbvDEDy_vcGsnb-10" value="drive across past the traffic light" style="rounded=0;whiteSpace=wrap;html=1;" vertex="1" parent="WIyWlLk6GJQsqaUBKTNV-1">
          <mxGeometry x="-560" y="-660" width="120" height="60" as="geometry" />
        </mxCell>
        <mxCell id="7nlXbzmbvDEDy_vcGsnb-12" value="Done" style="ellipse;whiteSpace=wrap;html=1;" vertex="1" parent="WIyWlLk6GJQsqaUBKTNV-1">
          <mxGeometry x="-560" y="-530" width="120" height="80" as="geometry" />
        </mxCell>
        <mxCell id="7nlXbzmbvDEDy_vcGsnb-13" value="" style="endArrow=classic;html=1;rounded=0;exitX=0.449;exitY=1.004;exitDx=0;exitDy=0;exitPerimeter=0;" edge="1" parent="WIyWlLk6GJQsqaUBKTNV-1" source="7nlXbzmbvDEDy_vcGsnb-10">
          <mxGeometry width="50" height="50" relative="1" as="geometry">
            <mxPoint x="-30" y="-670" as="sourcePoint" />
            <mxPoint x="-506" y="-530" as="targetPoint" />
          </mxGeometry>
        </mxCell>
      </root>
    </mxGraphModel>
  </diagram>
</mxfile>
